<svg xmlns="http://www.w3.org/2000/svg" x="0px" y="0px" width="70" height="70" viewBox="0 0 224 224" style=" fill:#000000;">
    <g fill="none" fill-rule="nonzero" stroke="none" stroke-width="1" stroke-linecap="butt" stroke-linejoin="miter" stroke-miterlimit="10" stroke-dasharray="" stroke-dashoffset="0" font-family="none" font-weight="none" font-size="none" text-anchor="none" style="mix-blend-mode: normal">
      <path d="M0,224v-224h224v224z" fill="none"></path>
      <g>
        <g id="surface1">
          <path d="M49.98438,150.32227l-3.5,1.09375c-11.33398,3.33594 -20.17969,12.23633 -23.46094,23.58398c-2.20117,8.42188 -3.47265,17.0625 -3.81445,25.75781c0,1.94141 1.57227,3.5 3.5,3.5c8.6543,-0.32812 17.25391,-1.59961 25.6211,-3.77344c11.41602,-3.28125 20.35742,-12.19531 23.66602,-23.59765l1.14844,-3.88281" fill="#f6d397"></path>
          <path d="M54.00391,158.79883l-1.68164,0.51953c-5.27735,1.57227 -9.39258,5.72852 -10.92383,11.0332c-1.02539,3.92383 -1.62695,7.9707 -1.77734,12.03125c-0.02735,0.45117 0.15039,0.88867 0.46484,1.2168c0.32813,0.31445 0.76563,0.49219 1.2168,0.46485c4.0332,-0.15039 8.05274,-0.73828 11.96289,-1.75c5.3457,-1.53125 9.51563,-5.6875 11.06055,-11.01953l0.56055,-1.81836" fill="#faefde"></path>
          <path d="M88.48438,85.25781l-54.08594,13.43945c-2.83008,0.71094 -5.37305,2.2832 -7.27344,4.51172l-11.51172,13.52149c-0.88867,1.03906 -1.09375,2.48828 -0.51953,3.73242c0.57422,1.24414 1.80469,2.03711 3.17188,2.03711h37.73438" fill="#f9e3ae"></path>
          <path d="M138.74219,135.51563l-13.43945,54.11328c-0.71094,2.84375 -2.2832,5.38672 -4.51172,7.28711l-13.52148,11.4707c-1.03906,0.88867 -2.48828,1.09375 -3.73242,0.51953c-1.24414,-0.57422 -2.03711,-1.80469 -2.03711,-3.17187v-37.73437" fill="#f9e3ae"></path>
          <path d="M58.93945,130.58008l-8.1211,14.94336c-0.90234,2.57031 -0.24609,5.41406 1.68164,7.32813l19.00391,19.00391c1.9414,1.8457 4.77148,2.43359 7.28711,1.5039l14.47852,-7.6289" fill="#acb7d0"></path>
          <path d="M214.55273,17.77344l-3.1582,21.49219c-3.65039,25.0332 -16.22852,47.90625 -35.41016,64.4082l-71.75,61.70117c-2.77539,2.39258 -6.93164,2.24219 -9.5293,-0.35547l-35.20508,-35.51953c-2.59765,-2.59765 -2.74805,-6.74023 -0.35547,-9.51562l61.60547,-71.61328c16.50195,-19.16797 39.375,-31.73242 64.39453,-35.38281l21.35547,-3.1582c2.20117,-0.35547 4.45703,0.35547 6.04297,1.92773c1.58594,1.57227 2.33789,3.81445 2.00976,6.01563z" fill="#c2cde7"></path>
          <path d="M59.5,129.67773c-2.59765,-2.59765 -2.74805,-6.7539 -0.35547,-9.5293l61.60547,-71.77734c16.50195,-19.16797 39.375,-31.73242 64.39453,-35.38281l-110.83789,116.51172c-4.04687,4.11523 -10.66406,4.19727 -14.80664,0.17773z" fill="#d5e0f3"></path>
          <path d="M214.55273,17.77344l-3.1582,21.49219c-1.75,11.97656 -5.56445,23.55664 -11.26562,34.23438c-7.31445,-7.31445 -39.68945,-37.93945 -50.39453,-48.64453c10.99219,-6.04297 22.9961,-10.0625 35.41016,-11.86719l21.35547,-3.1582c2.20117,-0.35547 4.45703,0.35547 6.04297,1.92773c1.58594,1.57227 2.33789,3.81445 2.00976,6.01563z" fill="#f39321"></path>
          <path d="M168,73.5c0,9.66602 -7.83398,17.5 -17.5,17.5c-9.66602,0 -17.5,-7.83398 -17.5,-17.5c0,-9.66602 7.83398,-17.5 17.5,-17.5c9.66602,0 17.5,7.83398 17.5,17.5z" fill="#ace3ff"></path>
          <path d="M215.07227,9.35156c-2.33789,-2.36523 -5.67383,-3.45898 -8.95508,-2.98047l-21.45117,3.14453c-25.85352,3.78711 -49.46485,16.77539 -66.5,36.58594l-30.91211,35.875l-53.73047,13.33008c-3.51367,0.90234 -6.67187,2.88477 -9.02344,5.67383l-11.55273,13.4668c-1.77735,2.07813 -2.17383,5.0039 -1.03906,7.47852c1.14844,2.48828 3.62305,4.07422 6.35742,4.07422h35.66992c0.16406,1.4082 0.61524,2.76172 1.32617,3.99219l-7.56055,14c-0.0957,0.17773 -0.17773,0.36914 -0.24609,0.56055c-0.32812,1.01172 -0.50586,2.07813 -0.51953,3.14453l-1.57226,0.49219c-12.45508,3.6914 -22.16211,13.50781 -25.68945,26.0039c-2.2832,8.68164 -3.60937,17.56836 -3.96485,26.53711c-0.06836,1.90039 0.62891,3.74609 1.95508,5.12695c1.32617,1.36719 3.14453,2.14649 5.04492,2.14649h0.28711c8.92773,-0.35547 17.78711,-1.66797 26.42773,-3.92383c12.56445,-3.62305 22.4082,-13.41211 26.09961,-25.96289l0.2461,-0.80664h0.56055c1.18945,-0.01367 2.3789,-0.21875 3.5,-0.60156l0.5332,-0.20508l14,-7.35547c1.08008,0.64258 2.25586,1.08008 3.5,1.29883v35.28711c-0.01367,2.73438 1.57226,5.22266 4.06055,6.3711c0.91602,0.42383 1.91406,0.65625 2.93945,0.65625c1.6543,0 3.2539,-0.60156 4.51172,-1.68164l13.64453,-11.58008c2.78906,-2.36523 4.75781,-5.55078 5.64648,-9.10547l13.125,-52.77344l36.46289,-31.5c19.79688,-17.03516 32.78515,-40.66016 36.57226,-66.5l3.1582,-21.49219c0.4375,-3.21289 -0.6289,-6.4668 -2.91211,-8.77735zM29.75,105.49219c1.4082,-1.70898 3.32227,-2.93945 5.45508,-3.5l44.14648,-10.99219l-22.99609,26.87891c-0.30078,0.35547 -0.57422,0.72461 -0.80664,1.12109h-37.2832zM68.81055,176.01172c-3.00781,10.24023 -11.00586,18.22461 -21.24609,21.21875c-8.13477,2.0918 -16.46094,3.32226 -24.85547,3.66406c0.32813,-8.42187 1.5586,-16.78906 3.67774,-24.95117c2.91211,-10.18555 10.8418,-18.18359 21,-21.17773l1.72265,-0.51953c0.28711,0.38281 0.60156,0.73828 0.94336,1.08008l19.00391,19.00391h0.17773zM77.49219,170.10547c-1.20312,0.42383 -2.55664,0.15039 -3.5,-0.71094l-19.0039,-18.89453c-0.94336,-0.90234 -1.3125,-2.24219 -0.94336,-3.5l6.19336,-11.375l28.58789,28.60156zM121.89844,188.75391c-0.56055,2.14648 -1.77734,4.06055 -3.5,5.45508l-13.39844,11.52539v-36.61328c0.5332,-0.31445 1.03906,-0.6836 1.50391,-1.08008l26.11328,-22.47656zM211.1211,17.25391l-3.14453,21.45117c-3.55469,24.19922 -15.70898,46.29297 -34.23437,62.23438l-36.54492,31.5c-0.51953,0.25977 -0.95703,0.64258 -1.29883,1.12109l-33.94727,29.18945c-1.38086,1.20313 -3.45898,1.1211 -4.75781,-0.17773l-35.3418,-35.3418c-1.28515,-1.29883 -1.35352,-3.34961 -0.17773,-4.73047l61.74219,-71.81836c7.50586,-8.73633 16.46094,-16.11914 26.45508,-21.84766l15.64063,15.6543c1.39453,1.18945 3.45898,1.10742 4.75781,-0.19141c1.28515,-1.28515 1.36719,-3.36328 0.17773,-4.74414l-14,-14c9.17383,-4.48437 18.96289,-7.54687 29.05273,-9.10547l21.45117,-3.14453h0.5332c1.02539,-0.01367 1.9961,0.42383 2.67969,1.20312c0.66992,0.76563 0.9707,1.80469 0.82031,2.81641z" fill="#8d6c9f"></path>
          <path d="M126,93.51563c-1.39453,-1.18945 -3.45898,-1.10742 -4.75781,0.19141c-1.28515,1.28515 -1.36719,3.36328 -0.17773,4.74414l4.93555,4.93555c1.39453,1.18945 3.45898,1.10742 4.75781,-0.17774c1.28516,-1.29883 1.36719,-3.36328 0.17773,-4.75781z" fill="#8d6c9f"></path>
          <path d="M113.57227,105.875c-1.36719,-1.4082 -3.62305,-1.42187 -5.01758,-0.05469c-1.4082,1.38086 -1.42187,3.62305 -0.05469,5.03125l4.97656,4.92188c1.36719,1.36719 3.58203,1.36719 4.94922,-0.01367c1.35351,-1.36719 1.35351,-3.58203 -0.02735,-4.94922z" fill="#8d6c9f"></path>
          <path d="M101.18555,118.26172c-1.39453,-1.18945 -3.45898,-1.10742 -4.75781,0.1914c-1.28515,1.28516 -1.36719,3.36328 -0.17773,4.74414l4.93555,4.93555c1.39453,1.18945 3.45899,1.10742 4.74414,-0.17773c1.29883,-1.29883 1.38086,-3.36328 0.19141,-4.75781z" fill="#8d6c9f"></path>
          <path d="M88.82617,130.6211c-1.4082,-1.02539 -3.34961,-0.86133 -4.5664,0.38281c-1.2168,1.25781 -1.32617,3.21289 -0.25977,4.58008l4.93555,4.93555c1.39453,1.18945 3.45899,1.12109 4.74414,-0.17774c1.29883,-1.29883 1.38086,-3.36328 0.19141,-4.75781z" fill="#8d6c9f"></path>
          <path d="M150.5,52.5c-11.59375,0 -21,9.40625 -21,21c0,11.59375 9.40625,21 21,21c11.59375,0 21,-9.40625 21,-21c0,-11.59375 -9.40625,-21 -21,-21zM150.5,87.5c-7.73828,0 -14,-6.26172 -14,-14c0,-7.73828 6.26172,-14 14,-14c7.73828,0 14,6.26172 14,14c0,7.73828 -6.26172,14 -14,14z" fill="#8d6c9f"></path>
          <path d="M180.98828,50.01172c-1.39453,-1.18945 -3.45899,-1.10742 -4.75781,0.1914c-1.28516,1.28516 -1.36719,3.36328 -0.17774,4.74414l10.5,10.5c1.38086,1.18945 3.45899,1.10742 4.74414,-0.17773c1.29883,-1.29883 1.38086,-3.36328 0.19141,-4.75781z" fill="#8d6c9f"></path>
        </g>
      </g>
    </g>
  </svg>